<svg width="264" height="264" viewBox="0 0 264 264" fill="none" xmlns="http://www.w3.org/2000/svg">
<rect x="24" width="240" height="240" fill="#6D6E74"/>
<rect x="12" y="12" width="240" height="240" fill="#6D6E74"/>
<rect y="24" width="240" height="240" fill="#6D6E74"/>
<path d="M35.28 86C34.9867 86 34.7333 85.8933 34.52 85.68C34.3067 85.4667 34.2 85.2133 34.2 84.92V59.08C34.2 58.7867 34.3067 58.5333 34.52 58.32C34.7333 58.1067 34.9867 58 35.28 58H46.8C49.3067 58 51.5467 58.4267 53.52 59.28C55.4933 60.1067 57.0667 61.3333 58.24 62.96C59.44 64.5867 60.08 66.6 60.16 69C60.2133 70.1467 60.24 71.16 60.24 72.04C60.24 72.8933 60.2133 73.8667 60.16 74.96C60.0533 77.4667 59.44 79.5467 58.32 81.2C57.2 82.8267 55.6667 84.04 53.72 84.84C51.8 85.6133 49.56 86 47 86H35.28ZM44.2 78.2H46.8C47.3867 78.2 47.9067 78.0933 48.36 77.88C48.84 77.64 49.2267 77.28 49.52 76.8C49.8133 76.32 49.9733 75.7067 50 74.96C50.0533 74.1867 50.08 73.4933 50.08 72.88C50.1067 72.2667 50.1067 71.6533 50.08 71.04C50.08 70.4 50.0533 69.72 50 69C49.9467 67.88 49.5867 67.0667 48.92 66.56C48.28 66.0533 47.5067 65.8 46.6 65.8H44.2V78.2ZM75.6494 86.4C73.036 86.4 70.7427 86 68.7694 85.2C66.8227 84.4 65.276 83.2 64.1294 81.6C63.0094 79.9733 62.396 77.9733 62.2894 75.6C62.2627 74.5067 62.2494 73.3467 62.2494 72.12C62.2494 70.8933 62.2627 69.7067 62.2894 68.56C62.396 66.2133 63.0094 64.2267 64.1294 62.6C65.2494 60.9733 66.796 59.7333 68.7694 58.88C70.7427 58.0267 73.036 57.6 75.6494 57.6C78.2627 57.6 80.556 58.0267 82.5294 58.88C84.5027 59.7333 86.0494 60.9733 87.1694 62.6C88.316 64.2267 88.9294 66.2133 89.0094 68.56C89.0627 69.7067 89.0894 70.8933 89.0894 72.12C89.0894 73.3467 89.0627 74.5067 89.0094 75.6C88.9027 77.9733 88.276 79.9733 87.1294 81.6C86.0094 83.2 84.4627 84.4 82.4894 85.2C80.5427 86 78.2627 86.4 75.6494 86.4ZM75.6494 78.6C76.5294 78.6 77.236 78.3467 77.7694 77.84C78.3027 77.3067 78.5827 76.48 78.6094 75.36C78.6627 74.2133 78.6894 73.08 78.6894 71.96C78.6894 70.84 78.6627 69.7333 78.6094 68.64C78.5827 67.8933 78.436 67.28 78.1694 66.8C77.9294 66.32 77.596 65.9733 77.1694 65.76C76.7427 65.52 76.236 65.4 75.6494 65.4C75.0894 65.4 74.5827 65.52 74.1294 65.76C73.7027 65.9733 73.356 66.32 73.0894 66.8C72.8494 67.28 72.716 67.8933 72.6894 68.64C72.6627 69.7333 72.6494 70.84 72.6494 71.96C72.6494 73.08 72.6627 74.2133 72.6894 75.36C72.7427 76.48 73.0227 77.3067 73.5294 77.84C74.0627 78.3467 74.7694 78.6 75.6494 78.6ZM92.9769 86C92.6835 86 92.4302 85.8933 92.2169 85.68C92.0035 85.4667 91.8969 85.2133 91.8969 84.92V59.08C91.8969 58.7867 92.0035 58.5333 92.2169 58.32C92.4302 58.1067 92.6835 58 92.9769 58H99.2969C99.8302 58 100.217 58.12 100.457 58.36C100.697 58.6 100.857 58.7867 100.937 58.92L107.697 70V59.08C107.697 58.7867 107.804 58.5333 108.017 58.32C108.23 58.1067 108.484 58 108.777 58H116.017C116.31 58 116.564 58.1067 116.777 58.32C116.99 58.5333 117.097 58.7867 117.097 59.08V84.92C117.097 85.2133 116.99 85.4667 116.777 85.68C116.564 85.8933 116.31 86 116.017 86H109.697C109.164 86 108.777 85.88 108.537 85.64C108.297 85.3733 108.137 85.1867 108.057 85.08L101.297 74.88V84.92C101.297 85.2133 101.19 85.4667 100.977 85.68C100.764 85.8933 100.51 86 100.217 86H92.9769ZM120.506 69.72C120.266 69.72 120.053 69.64 119.866 69.48C119.68 69.32 119.6 69.08 119.626 68.76L121.106 59.16C121.16 58.7867 121.32 58.44 121.586 58.12C121.88 57.7733 122.293 57.6 122.826 57.6H129.226C129.466 57.6 129.666 57.6933 129.826 57.88C130.013 58.04 130.106 58.24 130.106 58.48C130.106 58.5867 130.093 58.68 130.066 58.76L126.266 68.44C126.16 68.7067 125.973 68.9867 125.706 69.28C125.466 69.5733 125.08 69.72 124.546 69.72H120.506ZM138.983 86C138.69 86 138.436 85.8933 138.223 85.68C138.01 85.4667 137.903 85.2133 137.903 84.92V66.6H131.263C130.97 66.6 130.716 66.4933 130.503 66.28C130.29 66.0667 130.183 65.8133 130.183 65.52V59.08C130.183 58.7867 130.29 58.5333 130.503 58.32C130.716 58.1067 130.97 58 131.263 58H154.703C154.996 58 155.25 58.1067 155.463 58.32C155.676 58.5333 155.783 58.7867 155.783 59.08V65.52C155.783 65.8133 155.676 66.0667 155.463 66.28C155.25 66.4933 154.996 66.6 154.703 66.6H148.063V84.92C148.063 85.2133 147.956 85.4667 147.743 85.68C147.53 85.8933 147.276 86 146.983 86H138.983ZM45.88 126.4C42.92 126.4 40.48 126 38.56 125.2C36.64 124.4 35.2 123.347 34.24 122.04C33.28 120.733 32.7733 119.347 32.72 117.88C32.72 117.64 32.8 117.44 32.96 117.28C33.1467 117.093 33.36 117 33.6 117H41.2C41.6267 117 41.9467 117.067 42.16 117.2C42.4 117.307 42.6533 117.467 42.92 117.68C43.1867 117.867 43.4533 118.04 43.72 118.2C44.0133 118.333 44.3333 118.44 44.68 118.52C45.0533 118.573 45.4533 118.6 45.88 118.6C46.7867 118.6 47.5067 118.507 48.04 118.32C48.6 118.107 48.88 117.827 48.88 117.48C48.88 117.16 48.72 116.893 48.4 116.68C48.1067 116.467 47.5867 116.28 46.84 116.12C46.0933 115.933 45.0533 115.76 43.72 115.6C41.6133 115.307 39.7867 114.813 38.24 114.12C36.6933 113.427 35.4933 112.48 34.64 111.28C33.8133 110.053 33.4 108.56 33.4 106.8C33.4 104.987 33.9067 103.387 34.92 102C35.96 100.613 37.3867 99.5333 39.2 98.76C41.04 97.9867 43.1733 97.6 45.6 97.6C47.6 97.6 49.3733 97.8667 50.92 98.4C52.4667 98.9067 53.7733 99.5867 54.84 100.44C55.9067 101.267 56.72 102.16 57.28 103.12C57.84 104.08 58.1333 105 58.16 105.88C58.16 106.12 58.0667 106.333 57.88 106.52C57.72 106.68 57.5333 106.76 57.32 106.76H49.32C48.9467 106.76 48.64 106.707 48.4 106.6C48.1867 106.493 47.96 106.333 47.72 106.12C47.5867 105.987 47.3333 105.84 46.96 105.68C46.6133 105.493 46.16 105.4 45.6 105.4C44.9333 105.4 44.44 105.507 44.12 105.72C43.8267 105.907 43.68 106.173 43.68 106.52C43.68 106.76 43.8 106.987 44.04 107.2C44.28 107.413 44.72 107.6 45.36 107.76C46 107.92 46.92 108.08 48.12 108.24C50.7867 108.56 52.92 109.08 54.52 109.8C56.1467 110.493 57.32 111.427 58.04 112.6C58.7867 113.773 59.16 115.227 59.16 116.96C59.16 118.907 58.5733 120.587 57.4 122C56.2533 123.413 54.68 124.507 52.68 125.28C50.68 126.027 48.4133 126.4 45.88 126.4ZM73.9706 126.4C71.4106 126.4 69.144 126.027 67.1706 125.28C65.1973 124.533 63.624 123.36 62.4506 121.76C61.304 120.16 60.6773 118.093 60.5706 115.56C60.544 114.467 60.5306 113.293 60.5306 112.04C60.5306 110.787 60.544 109.587 60.5706 108.44C60.6773 105.96 61.3173 103.92 62.4906 102.32C63.6906 100.72 65.2773 99.5333 67.2506 98.76C69.2506 97.9867 71.4906 97.6 73.9706 97.6C75.6773 97.6 77.3173 97.8 78.8906 98.2C80.4906 98.5733 81.9306 99.1733 83.2106 100C84.4906 100.827 85.504 101.893 86.2506 103.2C87.024 104.48 87.424 106.027 87.4506 107.84C87.4506 108.08 87.3573 108.293 87.1706 108.48C87.0106 108.64 86.8106 108.72 86.5706 108.72H78.4106C77.984 108.72 77.664 108.64 77.4506 108.48C77.264 108.293 77.0906 107.987 76.9306 107.56C76.6373 106.707 76.2373 106.133 75.7306 105.84C75.224 105.547 74.624 105.4 73.9306 105.4C73.0506 105.4 72.344 105.64 71.8106 106.12C71.304 106.573 71.024 107.413 70.9706 108.64C70.8906 110.827 70.8906 113.067 70.9706 115.36C71.024 116.587 71.304 117.44 71.8106 117.92C72.344 118.373 73.0506 118.6 73.9306 118.6C74.624 118.6 75.224 118.44 75.7306 118.12C76.264 117.8 76.664 117.24 76.9306 116.44C77.064 115.987 77.2373 115.68 77.4506 115.52C77.664 115.36 77.984 115.28 78.4106 115.28H86.5706C86.8106 115.28 87.0106 115.373 87.1706 115.56C87.3573 115.72 87.4506 115.92 87.4506 116.16C87.424 117.973 87.024 119.533 86.2506 120.84C85.504 122.12 84.4906 123.173 83.2106 124C81.9306 124.827 80.4906 125.44 78.8906 125.84C77.3173 126.213 75.6773 126.4 73.9706 126.4ZM88.0769 126C87.8369 126 87.6235 125.92 87.4369 125.76C87.2769 125.573 87.1969 125.36 87.1969 125.12C87.1969 125.013 87.2102 124.92 87.2369 124.84L96.1569 99.32C96.2369 99.0267 96.4235 98.7333 96.7169 98.44C97.0102 98.1467 97.4235 98 97.9569 98H106.637C107.17 98 107.584 98.1467 107.877 98.44C108.17 98.7333 108.357 99.0267 108.437 99.32L117.357 124.84C117.384 124.92 117.397 125.013 117.397 125.12C117.397 125.36 117.304 125.573 117.117 125.76C116.957 125.92 116.757 126 116.517 126H109.117C108.61 126 108.237 125.893 107.997 125.68C107.784 125.44 107.637 125.213 107.557 125L106.597 122.36H97.9969L97.0369 125C96.9569 125.213 96.8102 125.44 96.5969 125.68C96.3835 125.893 96.0102 126 95.4769 126H88.0769ZM100.037 114.56H104.557L102.277 107.12L100.037 114.56ZM123.299 126C123.005 126 122.752 125.893 122.539 125.68C122.325 125.467 122.219 125.213 122.219 124.92V106.6H115.579C115.285 106.6 115.032 106.493 114.819 106.28C114.605 106.067 114.499 105.813 114.499 105.52V99.08C114.499 98.7867 114.605 98.5333 114.819 98.32C115.032 98.1067 115.285 98 115.579 98H139.019C139.312 98 139.565 98.1067 139.779 98.32C139.992 98.5333 140.099 98.7867 140.099 99.08V105.52C140.099 105.813 139.992 106.067 139.779 106.28C139.565 106.493 139.312 106.6 139.019 106.6H132.379V124.92C132.379 125.213 132.272 125.467 132.059 125.68C131.845 125.893 131.592 126 131.299 126H123.299ZM149.452 126C149.159 126 148.905 125.893 148.692 125.68C148.479 125.467 148.372 125.213 148.372 124.92V106.6H141.732C141.439 106.6 141.185 106.493 140.972 106.28C140.759 106.067 140.652 105.813 140.652 105.52V99.08C140.652 98.7867 140.759 98.5333 140.972 98.32C141.185 98.1067 141.439 98 141.732 98H165.172C165.465 98 165.719 98.1067 165.932 98.32C166.145 98.5333 166.252 98.7867 166.252 99.08V105.52C166.252 105.813 166.145 106.067 165.932 106.28C165.719 106.493 165.465 106.6 165.172 106.6H158.532V124.92C158.532 125.213 158.425 125.467 158.212 125.68C157.999 125.893 157.745 126 157.452 126H149.452ZM169.405 126C169.112 126 168.858 125.893 168.645 125.68C168.432 125.467 168.325 125.213 168.325 124.92V99.08C168.325 98.7867 168.432 98.5333 168.645 98.32C168.858 98.1067 169.112 98 169.405 98H189.925C190.218 98 190.472 98.1067 190.685 98.32C190.898 98.5333 191.005 98.7867 191.005 99.08V104.72C191.005 105.013 190.898 105.267 190.685 105.48C190.472 105.693 190.218 105.8 189.925 105.8H177.925V108.32H189.045C189.338 108.32 189.592 108.427 189.805 108.64C190.018 108.853 190.125 109.107 190.125 109.4V114.6C190.125 114.893 190.018 115.147 189.805 115.36C189.592 115.573 189.338 115.68 189.045 115.68H177.925V118.2H190.245C190.538 118.2 190.792 118.307 191.005 118.52C191.218 118.733 191.325 118.987 191.325 119.28V124.92C191.325 125.213 191.218 125.467 191.005 125.68C190.792 125.893 190.538 126 190.245 126H169.405ZM195.285 126C194.991 126 194.738 125.893 194.525 125.68C194.311 125.467 194.205 125.213 194.205 124.92V99.08C194.205 98.7867 194.311 98.5333 194.525 98.32C194.738 98.1067 194.991 98 195.285 98H207.125C210.965 98 213.965 98.8667 216.125 100.6C218.285 102.333 219.365 104.707 219.365 107.72C219.365 109.507 218.951 111.067 218.125 112.4C217.325 113.707 216.298 114.76 215.045 115.56L219.965 124.68C220.045 124.84 220.085 124.987 220.085 125.12C220.085 125.36 219.991 125.573 219.805 125.76C219.645 125.92 219.445 126 219.205 126H211.005C210.471 126 210.071 125.867 209.805 125.6C209.538 125.333 209.365 125.107 209.285 124.92L205.845 117.28H204.205V124.92C204.205 125.213 204.098 125.467 203.885 125.68C203.671 125.893 203.418 126 203.125 126H195.285ZM204.205 109.68H207.125C207.738 109.68 208.191 109.48 208.485 109.08C208.805 108.653 208.965 108.173 208.965 107.64C208.965 107.107 208.818 106.613 208.525 106.16C208.258 105.68 207.791 105.44 207.125 105.44H204.205V109.68ZM42.28 166C41.9867 166 41.7333 165.893 41.52 165.68C41.3067 165.467 41.2 165.213 41.2 164.92V157.04L32.2 139.24C32.1733 139.187 32.1467 139.133 32.12 139.08C32.12 139 32.12 138.933 32.12 138.88C32.12 138.64 32.2 138.44 32.36 138.28C32.5467 138.093 32.76 138 33 138H40.52C41.0533 138 41.4533 138.133 41.72 138.4C41.9867 138.667 42.1467 138.867 42.2 139L46.2 147.04L50.2 139C50.2533 138.867 50.4133 138.667 50.68 138.4C50.9467 138.133 51.3467 138 51.88 138H59.4C59.64 138 59.84 138.093 60 138.28C60.1867 138.44 60.28 138.64 60.28 138.88C60.28 138.933 60.2667 139 60.24 139.08C60.24 139.133 60.2267 139.187 60.2 139.24L51.2 157.04V164.92C51.2 165.213 51.0933 165.467 50.88 165.68C50.6667 165.893 50.4133 166 50.12 166H42.28ZM73.0713 166.4C70.4579 166.4 68.1646 166 66.1913 165.2C64.2446 164.4 62.6979 163.2 61.5513 161.6C60.4313 159.973 59.8179 157.973 59.7113 155.6C59.6846 154.507 59.6713 153.347 59.6713 152.12C59.6713 150.893 59.6846 149.707 59.7113 148.56C59.8179 146.213 60.4313 144.227 61.5513 142.6C62.6713 140.973 64.2179 139.733 66.1913 138.88C68.1646 138.027 70.4579 137.6 73.0713 137.6C75.6846 137.6 77.9779 138.027 79.9513 138.88C81.9246 139.733 83.4713 140.973 84.5913 142.6C85.7379 144.227 86.3513 146.213 86.4313 148.56C86.4846 149.707 86.5113 150.893 86.5113 152.12C86.5113 153.347 86.4846 154.507 86.4313 155.6C86.3246 157.973 85.6979 159.973 84.5513 161.6C83.4313 163.2 81.8846 164.4 79.9113 165.2C77.9646 166 75.6846 166.4 73.0713 166.4ZM73.0713 158.6C73.9513 158.6 74.6579 158.347 75.1913 157.84C75.7246 157.307 76.0046 156.48 76.0313 155.36C76.0846 154.213 76.1113 153.08 76.1113 151.96C76.1113 150.84 76.0846 149.733 76.0313 148.64C76.0046 147.893 75.8579 147.28 75.5913 146.8C75.3513 146.32 75.0179 145.973 74.5913 145.76C74.1646 145.52 73.6579 145.4 73.0713 145.4C72.5113 145.4 72.0046 145.52 71.5513 145.76C71.1246 145.973 70.7779 146.32 70.5113 146.8C70.2713 147.28 70.1379 147.893 70.1113 148.64C70.0846 149.733 70.0713 150.84 70.0713 151.96C70.0713 153.08 70.0846 154.213 70.1113 155.36C70.1646 156.48 70.4446 157.307 70.9513 157.84C71.4846 158.347 72.1913 158.6 73.0713 158.6ZM102.079 166.4C99.5188 166.4 97.2521 166.013 95.2788 165.24C93.3321 164.467 91.8121 163.267 90.7188 161.64C89.6254 160.013 89.0788 157.947 89.0788 155.44V139.08C89.0788 138.787 89.1854 138.533 89.3988 138.32C89.6121 138.107 89.8654 138 90.1588 138H97.9988C98.2921 138 98.5454 138.107 98.7588 138.32C98.9721 138.533 99.0788 138.787 99.0788 139.08V155.28C99.0788 156.267 99.3188 157.027 99.7988 157.56C100.305 158.093 101.052 158.36 102.039 158.36C103.025 158.36 103.759 158.093 104.239 157.56C104.745 157.027 104.999 156.267 104.999 155.28V139.08C104.999 138.787 105.105 138.533 105.319 138.32C105.532 138.107 105.785 138 106.079 138H113.919C114.212 138 114.465 138.107 114.679 138.32C114.892 138.533 114.999 138.787 114.999 139.08V155.44C114.999 157.947 114.452 160.013 113.359 161.64C112.265 163.267 110.745 164.467 108.799 165.24C106.852 166.013 104.612 166.4 102.079 166.4ZM119.442 166C119.149 166 118.896 165.893 118.682 165.68C118.469 165.467 118.362 165.213 118.362 164.92V139.08C118.362 138.787 118.469 138.533 118.682 138.32C118.896 138.107 119.149 138 119.442 138H131.282C135.122 138 138.122 138.867 140.283 140.6C142.442 142.333 143.522 144.707 143.522 147.72C143.522 149.507 143.109 151.067 142.283 152.4C141.482 153.707 140.456 154.76 139.202 155.56L144.123 164.68C144.202 164.84 144.242 164.987 144.242 165.12C144.242 165.36 144.149 165.573 143.963 165.76C143.802 165.92 143.602 166 143.362 166H135.162C134.629 166 134.229 165.867 133.962 165.6C133.696 165.333 133.522 165.107 133.442 164.92L130.002 157.28H128.362V164.92C128.362 165.213 128.256 165.467 128.042 165.68C127.829 165.893 127.576 166 127.282 166H119.442ZM128.362 149.68H131.282C131.896 149.68 132.349 149.48 132.642 149.08C132.962 148.653 133.122 148.173 133.122 147.64C133.122 147.107 132.976 146.613 132.682 146.16C132.416 145.68 131.949 145.44 131.282 145.44H128.362V149.68ZM35.28 206C34.9867 206 34.7333 205.893 34.52 205.68C34.3067 205.467 34.2 205.213 34.2 204.92V179.08C34.2 178.787 34.3067 178.533 34.52 178.32C34.7333 178.107 34.9867 178 35.28 178H48.56C51.12 178 53.2133 178.32 54.84 178.96C56.4667 179.573 57.6667 180.507 58.44 181.76C59.24 182.987 59.64 184.533 59.64 186.4C59.64 187.253 59.4533 188.027 59.08 188.72C58.7333 189.387 58.3067 189.947 57.8 190.4C57.32 190.853 56.8667 191.187 56.44 191.4C57.4533 191.827 58.3333 192.573 59.08 193.64C59.8533 194.68 60.24 195.867 60.24 197.2C60.24 199.2 59.8 200.853 58.92 202.16C58.04 203.44 56.76 204.4 55.08 205.04C53.4267 205.68 51.3867 206 48.96 206H35.28ZM44.2 199.12H47.92C48.5867 199.12 49.0533 198.907 49.32 198.48C49.6133 198.027 49.76 197.587 49.76 197.16C49.76 196.68 49.6 196.24 49.28 195.84C48.9867 195.413 48.5333 195.2 47.92 195.2H44.2V199.12ZM44.2 188.52H47.56C48.1467 188.52 48.56 188.333 48.8 187.96C49.0667 187.56 49.2 187.147 49.2 186.72C49.2 186.293 49.0667 185.88 48.8 185.48C48.56 185.08 48.1467 184.88 47.56 184.88H44.2V188.52ZM63.855 206C63.5617 206 63.3083 205.893 63.095 205.68C62.8817 205.467 62.775 205.213 62.775 204.92V179.08C62.775 178.787 62.8817 178.533 63.095 178.32C63.3083 178.107 63.5617 178 63.855 178H75.695C79.535 178 82.535 178.867 84.695 180.6C86.855 182.333 87.935 184.707 87.935 187.72C87.935 189.507 87.5217 191.067 86.695 192.4C85.895 193.707 84.8683 194.76 83.615 195.56L88.535 204.68C88.615 204.84 88.655 204.987 88.655 205.12C88.655 205.36 88.5617 205.573 88.375 205.76C88.215 205.92 88.015 206 87.775 206H79.575C79.0417 206 78.6417 205.867 78.375 205.6C78.1083 205.333 77.935 205.107 77.855 204.92L74.415 197.28H72.775V204.92C72.775 205.213 72.6683 205.467 72.455 205.68C72.2417 205.893 71.9883 206 71.695 206H63.855ZM72.775 189.68H75.695C76.3083 189.68 76.7617 189.48 77.055 189.08C77.375 188.653 77.535 188.173 77.535 187.64C77.535 187.107 77.3883 186.613 77.095 186.16C76.8283 185.68 76.3617 185.44 75.695 185.44H72.775V189.68ZM103.287 206.4C100.674 206.4 98.3802 206 96.4069 205.2C94.4602 204.4 92.9135 203.2 91.7669 201.6C90.6469 199.973 90.0335 197.973 89.9269 195.6C89.9002 194.507 89.8869 193.347 89.8869 192.12C89.8869 190.893 89.9002 189.707 89.9269 188.56C90.0335 186.213 90.6469 184.227 91.7669 182.6C92.8869 180.973 94.4335 179.733 96.4069 178.88C98.3802 178.027 100.674 177.6 103.287 177.6C105.9 177.6 108.194 178.027 110.167 178.88C112.14 179.733 113.687 180.973 114.807 182.6C115.954 184.227 116.567 186.213 116.647 188.56C116.7 189.707 116.727 190.893 116.727 192.12C116.727 193.347 116.7 194.507 116.647 195.6C116.54 197.973 115.914 199.973 114.767 201.6C113.647 203.2 112.1 204.4 110.127 205.2C108.18 206 105.9 206.4 103.287 206.4ZM103.287 198.6C104.167 198.6 104.874 198.347 105.407 197.84C105.94 197.307 106.22 196.48 106.247 195.36C106.3 194.213 106.327 193.08 106.327 191.96C106.327 190.84 106.3 189.733 106.247 188.64C106.22 187.893 106.074 187.28 105.807 186.8C105.567 186.32 105.234 185.973 104.807 185.76C104.38 185.52 103.874 185.4 103.287 185.4C102.727 185.4 102.22 185.52 101.767 185.76C101.34 185.973 100.994 186.32 100.727 186.8C100.487 187.28 100.354 187.893 100.327 188.64C100.3 189.733 100.287 190.84 100.287 191.96C100.287 193.08 100.3 194.213 100.327 195.36C100.38 196.48 100.66 197.307 101.167 197.84C101.7 198.347 102.407 198.6 103.287 198.6ZM123.541 206C123.008 206 122.581 205.84 122.261 205.52C121.941 205.173 121.754 204.827 121.701 204.48L118.021 179C118.021 178.973 118.021 178.96 118.021 178.96C118.021 178.933 118.021 178.907 118.021 178.88C118.021 178.64 118.101 178.44 118.261 178.28C118.448 178.093 118.661 178 118.901 178H126.341C127.221 178 127.701 178.36 127.781 179.08L129.141 190.36L130.781 185.36C130.834 185.173 130.954 184.933 131.141 184.64C131.328 184.347 131.661 184.2 132.141 184.2H136.221C136.701 184.2 137.034 184.347 137.221 184.64C137.408 184.933 137.528 185.173 137.581 185.36L139.221 190.32L140.581 179.08C140.661 178.36 141.141 178 142.021 178H149.461C149.701 178 149.901 178.093 150.061 178.28C150.248 178.44 150.341 178.64 150.341 178.88C150.341 178.907 150.341 178.933 150.341 178.96C150.341 178.96 150.341 178.973 150.341 179L146.661 204.48C146.634 204.827 146.448 205.173 146.101 205.52C145.781 205.84 145.354 206 144.821 206H139.101C138.568 206 138.168 205.867 137.901 205.6C137.661 205.307 137.514 205.08 137.461 204.92L134.181 196.72L130.901 204.92C130.848 205.08 130.688 205.307 130.421 205.6C130.181 205.867 129.794 206 129.261 206H123.541ZM164.399 206.4C161.439 206.4 158.999 206 157.079 205.2C155.159 204.4 153.719 203.347 152.759 202.04C151.799 200.733 151.292 199.347 151.239 197.88C151.239 197.64 151.319 197.44 151.479 197.28C151.665 197.093 151.879 197 152.119 197H159.719C160.145 197 160.465 197.067 160.679 197.2C160.919 197.307 161.172 197.467 161.439 197.68C161.705 197.867 161.972 198.04 162.239 198.2C162.532 198.333 162.852 198.44 163.199 198.52C163.572 198.573 163.972 198.6 164.399 198.6C165.305 198.6 166.025 198.507 166.559 198.32C167.119 198.107 167.399 197.827 167.399 197.48C167.399 197.16 167.239 196.893 166.919 196.68C166.625 196.467 166.105 196.28 165.359 196.12C164.612 195.933 163.572 195.76 162.239 195.6C160.132 195.307 158.305 194.813 156.759 194.12C155.212 193.427 154.012 192.48 153.159 191.28C152.332 190.053 151.919 188.56 151.919 186.8C151.919 184.987 152.425 183.387 153.439 182C154.479 180.613 155.905 179.533 157.719 178.76C159.559 177.987 161.692 177.6 164.119 177.6C166.119 177.6 167.892 177.867 169.439 178.4C170.985 178.907 172.292 179.587 173.359 180.44C174.425 181.267 175.239 182.16 175.799 183.12C176.359 184.08 176.652 185 176.679 185.88C176.679 186.12 176.585 186.333 176.399 186.52C176.239 186.68 176.052 186.76 175.839 186.76H167.839C167.465 186.76 167.159 186.707 166.919 186.6C166.705 186.493 166.479 186.333 166.239 186.12C166.105 185.987 165.852 185.84 165.479 185.68C165.132 185.493 164.679 185.4 164.119 185.4C163.452 185.4 162.959 185.507 162.639 185.72C162.345 185.907 162.199 186.173 162.199 186.52C162.199 186.76 162.319 186.987 162.559 187.2C162.799 187.413 163.239 187.6 163.879 187.76C164.519 187.92 165.439 188.08 166.639 188.24C169.305 188.56 171.439 189.08 173.039 189.8C174.665 190.493 175.839 191.427 176.559 192.6C177.305 193.773 177.679 195.227 177.679 196.96C177.679 198.907 177.092 200.587 175.919 202C174.772 203.413 173.199 204.507 171.199 205.28C169.199 206.027 166.932 206.4 164.399 206.4ZM180.889 206C180.596 206 180.343 205.893 180.129 205.68C179.916 205.467 179.809 205.213 179.809 204.92V179.08C179.809 178.787 179.916 178.533 180.129 178.32C180.343 178.107 180.596 178 180.889 178H201.409C201.703 178 201.956 178.107 202.169 178.32C202.383 178.533 202.489 178.787 202.489 179.08V184.72C202.489 185.013 202.383 185.267 202.169 185.48C201.956 185.693 201.703 185.8 201.409 185.8H189.409V188.32H200.529C200.823 188.32 201.076 188.427 201.289 188.64C201.503 188.853 201.609 189.107 201.609 189.4V194.6C201.609 194.893 201.503 195.147 201.289 195.36C201.076 195.573 200.823 195.68 200.529 195.68H189.409V198.2H201.729C202.023 198.2 202.276 198.307 202.489 198.52C202.703 198.733 202.809 198.987 202.809 199.28V204.92C202.809 205.213 202.703 205.467 202.489 205.68C202.276 205.893 202.023 206 201.729 206H180.889ZM206.769 206C206.476 206 206.222 205.893 206.009 205.68C205.796 205.467 205.689 205.213 205.689 204.92V179.08C205.689 178.787 205.796 178.533 206.009 178.32C206.222 178.107 206.476 178 206.769 178H218.609C222.449 178 225.449 178.867 227.609 180.6C229.769 182.333 230.849 184.707 230.849 187.72C230.849 189.507 230.436 191.067 229.609 192.4C228.809 193.707 227.782 194.76 226.529 195.56L231.449 204.68C231.529 204.84 231.569 204.987 231.569 205.12C231.569 205.36 231.476 205.573 231.289 205.76C231.129 205.92 230.929 206 230.689 206H222.489C221.956 206 221.556 205.867 221.289 205.6C221.022 205.333 220.849 205.107 220.769 204.92L217.329 197.28H215.689V204.92C215.689 205.213 215.582 205.467 215.369 205.68C215.156 205.893 214.902 206 214.609 206H206.769ZM215.689 189.68H218.609C219.222 189.68 219.676 189.48 219.969 189.08C220.289 188.653 220.449 188.173 220.449 187.64C220.449 187.107 220.302 186.613 220.009 186.16C219.742 185.68 219.276 185.44 218.609 185.44H215.689V189.68Z" fill="white"/>
</svg>
